# xmcd
#
# Track frame offsets:
#	150
#	13482
#	38033
#	49342
#	70154
#	88954
#	105381
#	122442
#	136255
#	153380
#	175298
#	191303
#	207231
#	225064
#	247103
#	258818
#	288007
#
# Disc length: 3987 seconds
#
# Revision: 0
# Processed by: cddbd v1.5.2PL0 Copyright (c) Steve Scherf et al.
# Submitted via: audiograbber 1.83.01
#
DISCID=e00f9111
DTITLE=Willie Buck - The Life I Love
DYEAR=1900
DGENRE=
TTITLE0=She's All Right
TTITLE1=How Can I Be Nice To You
TTITLE2=I've Got A Right To Love My Baby
TTITLE3=Champagne And Reefer
TTITLE4=There's A Time
TTITLE5=Everything's Gonna Be Alright
TTITLE6=Sweet Sixteen
TTITLE7=Found My Baby Gone
TTITLE8=Found My Baby Gone
TTITLE9=Nineteen Years Old
TTITLE10=I Want You To Love Me
TTITLE11=Got My Mojo Workin'
TTITLE12=Sugar Sweet
TTITLE13=Don't Go No Further
TTITLE14=Checkin' Up On My Baby
TTITLE15=Just To Be With You
TTITLE16=Blues Had A Baby
EXTD=
EXTT0=
EXTT1=
EXTT2=
EXTT3=
EXTT4=
EXTT5=
EXTT6=
EXTT7=
EXTT8=
EXTT9=
EXTT10=
EXTT11=
EXTT12=
EXTT13=
EXTT14=
EXTT15=
EXTT16=
PLAYORDER=
